<svg width="16" height="16" viewBox="0 0 16 16" fill="none" xmlns="http://www.w3.org/2000/svg">
<path d="M13.5625 7.52348L8.37661 1.54692C8.32973 1.49284 8.27178 1.44947 8.20667 1.41974C8.14157 1.39002 8.07083 1.37463 7.99926 1.37463C7.92769 1.37463 7.85696 1.39002 7.79186 1.41974C7.72675 1.44947 7.6688 1.49284 7.62192 1.54692L2.43755 7.52348C2.42188 7.5415 2.41172 7.56363 2.40828 7.58726C2.40484 7.61088 2.40827 7.635 2.41814 7.65673C2.42802 7.67847 2.44394 7.6969 2.464 7.70984C2.48406 7.72279 2.50742 7.72969 2.5313 7.72973H3.79692C3.8688 7.72973 3.93755 7.69848 3.98598 7.6438L7.4063 3.70161V12.5C7.4063 12.5688 7.46255 12.625 7.5313 12.625H8.4688C8.53755 12.625 8.5938 12.5688 8.5938 12.5V3.70161L12.0141 7.6438C12.061 7.69848 12.1297 7.72973 12.2032 7.72973H13.4688C13.575 7.72973 13.6329 7.60473 13.5625 7.52348Z" fill="#333333"/>
</svg>
