<svg width="60" height="60" viewBox="0 0 60 60" fill="none" xmlns="http://www.w3.org/2000/svg">
<path d="M34.575 47.5C34.2015 47.5013 33.8325 47.4189 33.495 47.2588C33.1576 47.0987 32.8603 46.8651 32.625 46.575L20.55 31.575C20.1823 31.1277 19.9813 30.5666 19.9813 29.9875C19.9813 29.4085 20.1823 28.8473 20.55 28.4L33.05 13.4C33.4743 12.8895 34.0841 12.5684 34.7452 12.5075C35.4062 12.4465 36.0644 12.6507 36.575 13.075C37.0855 13.4994 37.4066 14.1091 37.4675 14.7702C37.5285 15.4313 37.3243 16.0895 36.9 16.6L25.725 30L36.525 43.4C36.8307 43.767 37.0249 44.2138 37.0846 44.6877C37.1443 45.1616 37.067 45.6426 36.8618 46.074C36.6567 46.5053 36.3323 46.8688 35.927 47.1215C35.5218 47.3743 35.0526 47.5056 34.575 47.5Z" fill="white"/>
</svg>
