<svg width="60" height="60" viewBox="0 0 60 60" fill="none" xmlns="http://www.w3.org/2000/svg">
<path d="M25.4251 47.5C25.7986 47.5013 26.1676 47.4189 26.505 47.2588C26.8425 47.0987 27.1398 46.8651 27.3751 46.575L39.4501 31.575C39.8178 31.1277 40.0188 30.5666 40.0188 29.9875C40.0188 29.4085 39.8178 28.8473 39.4501 28.4L26.9501 13.4C26.5257 12.8895 25.916 12.5684 25.2549 12.5075C24.5938 12.4465 23.9356 12.6507 23.4251 13.075C22.9145 13.4994 22.5935 14.1091 22.5325 14.7702C22.4716 15.4313 22.6757 16.0895 23.1001 16.6L34.2751 30L23.4751 43.4C23.1694 43.767 22.9752 44.2138 22.9155 44.6877C22.8558 45.1616 22.9331 45.6426 23.1382 46.074C23.3434 46.5053 23.6678 46.8688 24.073 47.1215C24.4783 47.3743 24.9475 47.5056 25.4251 47.5Z" fill="white"/>
</svg>
